:SAMPLES-PER-SECOND 30
:FULLY-SPECIFIED
:DEGREES
624
root  59.4023 38.0947 -27.7218 11.5515 19.3949 2.51534
RightUpLeg  -36.6173 -7.65752 7.62387
RightLeg  27.3441 1.70353 0.721421
RightFoot  -0.611188 1.19186 -12.6647
RightToes  0.000482159 0.542163 -0.142577
Spine  54.9022 -2.30572 6.71341
Spine1  10.4568 -1.14539 5.36813
HEad  -27.3705 -3.11688 4.53695
LeftShoulder1  11.535 -22.7165 -37.7489
LeftArm  -30.1346 -44.993 -3.09294
LeftForeArm  3.08129 -32.5249 -7.01334
LeftHand  -0.25398 0.0180481 5.50724
RightShoulder  6.92874 15.1313 31.1877
RightArm  -23.9745 37.2188 22.0358
RightForeArm  -24.9515 43.9423 12.2467
RightHand  -0.774739 7.15185 -7.59815
LeftUpLeg  -33.781 4.89919 9.11456
LeftLeg  15.6359 -1.83602 -0.292231
LeftFoot  7.62625 1.36601 -8.50683
LeftToes  1.06246e-005 4.65854e-005 -8.18503e-006
625
root  60.5708 38.1037 -27.8861 12.7296 16.3616 2.54103
RightUpLeg  -38.2326 -5.60372 5.45288
RightLeg  28.4991 2.50491 1.23326
RightFoot  -0.549786 1.09476 -11.5788
RightToes  0.000482159 0.542163 -0.142577
Spine  56.4625 -2.60894 6.34555
Spine1  10.834 -0.655308 3.0716
HEad  -29.2589 -2.76779 4.7272
LeftShoulder1  11.4747 -23.6301 -36.0679
LeftArm  -33.6178 -45.8651 0.409109
LeftForeArm  1.9575 -31.7076 -6.86236
LeftHand  -0.25398 0.0180481 5.50724
RightShoulder  6.98247 15.6128 30.5309
RightArm  -26.8212 41.0709 20.6113
RightForeArm  -22.6064 42.0968 11.4172
RightHand  -0.717898 7.89897 -6.71737
LeftUpLeg  -33.2288 4.2512 8.86348
LeftLeg  12.4758 -3.27226 -0.567799
LeftFoot  9.14784 1.60289 -9.1762
LeftToes  1.06246e-005 4.65854e-005 -8.18503e-006
626
root  61.6633 38.1326 -28.0423 14.3046 14.1089 2.76172
RightUpLeg  -40.1406 -3.39661 2.94652
RightLeg  29.1148 2.24619 1.11619
RightFoot  -0.29923 0.970865 -10.0302
RightToes  0.000482159 0.542163 -0.142577
Spine  58.3869 -2.63328 5.41939
Spine1  10.1488 -0.405135 1.95591
HEad  -30.8342 -2.47306 4.39476
LeftShoulder1  11.6145 -24.1942 -35.7074
LeftArm  -37.6961 -46.5931 4.00057
LeftForeArm  1.8206 -31.6849 -6.86443
LeftHand  -0.25398 0.0180481 5.50724
RightShoulder  6.98835 15.8522 30.1003
RightArm  -29.3296 44.3436 18.6299
RightForeArm  -20.6332 40.9699 10.9056
RightHand  -0.561287 7.96186 -5.33845
LeftUpLeg  -34.8212 8.85106 5.23048
LeftLeg  13.8029 -4.91187 -1.62734
LeftFoot  8.49591 1.22355 -7.27504
LeftToes  1.06246e-005 4.65854e-005 -8.18503e-006
627
root  62.7005 38.1448 -28.1519 16.1162 12.6626 2.70148
RightUpLeg  -42.2225 -1.57415 0.749321
RightLeg  29.411 1.56348 0.717702
RightFoot  -0.0192516 0.831812 -8.36876
RightToes  0.000482159 0.542163 -0.142577
Spine  60.4615 -2.54042 4.98274
Spine1  8.50376 -0.29925 2.03462
HEad  -32.3828 -2.51514 4.04339
LeftShoulder1  11.8894 -24.7613 -35.8238
LeftArm  -41.9658 -47.5629 7.37111
LeftForeArm  2.37624 -31.522 -6.79171
LeftHand  -0.25398 0.0180481 5.50724
RightShoulder  6.97199 15.759 30.1933
RightArm  -31.6397 47.1985 15.6496
RightForeArm  -19.781 40.2856 10.62
RightHand  -0.462594 8.05682 -4.46087
LeftUpLeg  -37.9001 14.3587 0.79334
LeftLeg  16.2476 -7.90291 -2.73568
LeftFoot  7.23391 0.889964 -5.71708
LeftToes  1.06246e-005 4.65854e-005 -8.18503e-006
628
root  63.703 38.1682 -28.2127 17.9437 11.6576 2.47298
RightUpLeg  -44.0658 -1.20227 -0.758874
RightLeg  29.265 1.75782 0.828153
RightFoot  0.295581 0.742365 -7.24812
RightToes  0.000482159 0.542163 -0.142577
Spine  62.2781 -2.71491 5.13094
Spine1  7.06368 -0.255593 2.08976
HEad  -34.1077 -2.75794 4.00082
LeftShoulder1  12.1624 -25.5494 -35.6065
LeftArm  -46.6237 -48.5425 10.6991
LeftForeArm  2.83322 -31.2015 -6.684
LeftHand  -0.25398 0.0180481 5.50724
RightShoulder  7.01277 15.7805 30.3667
RightArm  -34.6379 49.606 11.9193
RightForeArm  -19.5814 39.4068 10.3071
RightHand  -0.474177 8.62833 -4.40537
LeftUpLeg  -40.9478 16.4944 -2.25521
LeftLeg  17.9896 -9.73316 -3.23811
LeftFoot  6.61324 0.747935 -4.99074
LeftToes  1.06246e-005 4.65854e-005 -8.18503e-006
